<mxfile host="app.diagrams.net" modified="2023-12-10T10:42:38.046Z" agent="Mozilla/5.0 (Windows NT 10.0; Win64; x64) AppleWebKit/537.36 (KHTML, like Gecko) Chrome/119.0.0.0 Safari/537.36" etag="mneyPmY4XtJfCextQKYs" version="22.1.7" type="device">
  <diagram name="Page-1" id="UIt4oFT6vnFcvA8xH-wc">
    <mxGraphModel dx="1221" dy="826" grid="1" gridSize="10" guides="1" tooltips="1" connect="1" arrows="1" fold="1" page="1" pageScale="1" pageWidth="850" pageHeight="1100" math="0" shadow="0">
      <root>
        <mxCell id="0" />
        <mxCell id="1" parent="0" />
        <mxCell id="JMkpRrbRe8zlzlUR4qUp-27" value="START" style="strokeWidth=2;html=1;shape=mxgraph.flowchart.start_1;whiteSpace=wrap;" vertex="1" parent="1">
          <mxGeometry x="230" y="30" width="100" height="60" as="geometry" />
        </mxCell>
        <mxCell id="JMkpRrbRe8zlzlUR4qUp-28" value="REGISTERED?" style="strokeWidth=2;html=1;shape=mxgraph.flowchart.decision;whiteSpace=wrap;" vertex="1" parent="1">
          <mxGeometry x="230" y="280" width="100" height="100" as="geometry" />
        </mxCell>
        <mxCell id="JMkpRrbRe8zlzlUR4qUp-29" value="WELCOME PAGES" style="rounded=1;whiteSpace=wrap;html=1;absoluteArcSize=1;arcSize=14;strokeWidth=2;" vertex="1" parent="1">
          <mxGeometry x="230" y="130" width="100" height="100" as="geometry" />
        </mxCell>
        <mxCell id="JMkpRrbRe8zlzlUR4qUp-30" value="REGISTER" style="rounded=0;whiteSpace=wrap;html=1;" vertex="1" parent="1">
          <mxGeometry x="215" y="440" width="130" height="40" as="geometry" />
        </mxCell>
        <mxCell id="JMkpRrbRe8zlzlUR4qUp-31" value="LOGIN" style="shape=parallelogram;html=1;strokeWidth=2;perimeter=parallelogramPerimeter;whiteSpace=wrap;rounded=1;arcSize=12;size=0.23;" vertex="1" parent="1">
          <mxGeometry x="460" y="290" width="130" height="80" as="geometry" />
        </mxCell>
        <mxCell id="JMkpRrbRe8zlzlUR4qUp-33" value="HOMEPAGE" style="rounded=1;whiteSpace=wrap;html=1;absoluteArcSize=1;arcSize=14;strokeWidth=2;" vertex="1" parent="1">
          <mxGeometry x="475" y="480" width="100" height="100" as="geometry" />
        </mxCell>
        <mxCell id="JMkpRrbRe8zlzlUR4qUp-34" value="LEARN" style="strokeWidth=2;html=1;shape=mxgraph.flowchart.decision;whiteSpace=wrap;" vertex="1" parent="1">
          <mxGeometry x="660" y="475" width="100" height="110" as="geometry" />
        </mxCell>
        <mxCell id="JMkpRrbRe8zlzlUR4qUp-35" value="INVESTMENT&lt;br&gt;OPPORTUNITIES" style="strokeWidth=2;html=1;shape=mxgraph.flowchart.decision;whiteSpace=wrap;" vertex="1" parent="1">
          <mxGeometry x="460" y="630" width="135" height="120" as="geometry" />
        </mxCell>
        <mxCell id="JMkpRrbRe8zlzlUR4qUp-36" value="LOGOUT" style="rounded=0;whiteSpace=wrap;html=1;" vertex="1" parent="1">
          <mxGeometry x="660" y="800" width="120" height="60" as="geometry" />
        </mxCell>
        <mxCell id="JMkpRrbRe8zlzlUR4qUp-37" value="STOP" style="strokeWidth=2;html=1;shape=mxgraph.flowchart.terminator;whiteSpace=wrap;" vertex="1" parent="1">
          <mxGeometry x="660" y="940" width="100" height="60" as="geometry" />
        </mxCell>
        <mxCell id="JMkpRrbRe8zlzlUR4qUp-38" value="" style="endArrow=classic;html=1;rounded=0;entryX=0.5;entryY=0;entryDx=0;entryDy=0;exitX=0.5;exitY=1;exitDx=0;exitDy=0;exitPerimeter=0;" edge="1" parent="1" source="JMkpRrbRe8zlzlUR4qUp-27" target="JMkpRrbRe8zlzlUR4qUp-29">
          <mxGeometry width="50" height="50" relative="1" as="geometry">
            <mxPoint x="390" y="450" as="sourcePoint" />
            <mxPoint x="440" y="400" as="targetPoint" />
            <Array as="points" />
          </mxGeometry>
        </mxCell>
        <mxCell id="JMkpRrbRe8zlzlUR4qUp-39" value="" style="endArrow=classic;html=1;rounded=0;exitX=0.5;exitY=1;exitDx=0;exitDy=0;entryX=0.5;entryY=0;entryDx=0;entryDy=0;entryPerimeter=0;" edge="1" parent="1" source="JMkpRrbRe8zlzlUR4qUp-29" target="JMkpRrbRe8zlzlUR4qUp-28">
          <mxGeometry width="50" height="50" relative="1" as="geometry">
            <mxPoint x="390" y="450" as="sourcePoint" />
            <mxPoint x="440" y="400" as="targetPoint" />
          </mxGeometry>
        </mxCell>
        <mxCell id="JMkpRrbRe8zlzlUR4qUp-40" value="" style="endArrow=classic;html=1;rounded=0;entryX=0;entryY=0.5;entryDx=0;entryDy=0;exitX=1;exitY=0.5;exitDx=0;exitDy=0;exitPerimeter=0;" edge="1" parent="1" source="JMkpRrbRe8zlzlUR4qUp-28" target="JMkpRrbRe8zlzlUR4qUp-31">
          <mxGeometry width="50" height="50" relative="1" as="geometry">
            <mxPoint x="390" y="450" as="sourcePoint" />
            <mxPoint x="440" y="400" as="targetPoint" />
          </mxGeometry>
        </mxCell>
        <mxCell id="JMkpRrbRe8zlzlUR4qUp-41" value="YES" style="text;html=1;align=center;verticalAlign=middle;resizable=0;points=[];autosize=1;strokeColor=none;fillColor=none;" vertex="1" parent="1">
          <mxGeometry x="370" y="290" width="50" height="30" as="geometry" />
        </mxCell>
        <mxCell id="JMkpRrbRe8zlzlUR4qUp-42" value="" style="endArrow=classic;html=1;rounded=0;exitX=0.5;exitY=1;exitDx=0;exitDy=0;exitPerimeter=0;entryX=0.5;entryY=0;entryDx=0;entryDy=0;" edge="1" parent="1" source="JMkpRrbRe8zlzlUR4qUp-28" target="JMkpRrbRe8zlzlUR4qUp-30">
          <mxGeometry width="50" height="50" relative="1" as="geometry">
            <mxPoint x="390" y="450" as="sourcePoint" />
            <mxPoint x="440" y="400" as="targetPoint" />
          </mxGeometry>
        </mxCell>
        <mxCell id="JMkpRrbRe8zlzlUR4qUp-43" value="NO" style="text;html=1;align=center;verticalAlign=middle;resizable=0;points=[];autosize=1;strokeColor=none;fillColor=none;" vertex="1" parent="1">
          <mxGeometry x="290" y="388" width="40" height="30" as="geometry" />
        </mxCell>
        <mxCell id="JMkpRrbRe8zlzlUR4qUp-44" value="" style="endArrow=classic;html=1;rounded=0;entryX=0.018;entryY=0.867;entryDx=0;entryDy=0;entryPerimeter=0;exitX=1;exitY=0.5;exitDx=0;exitDy=0;" edge="1" parent="1" source="JMkpRrbRe8zlzlUR4qUp-30" target="JMkpRrbRe8zlzlUR4qUp-31">
          <mxGeometry width="50" height="50" relative="1" as="geometry">
            <mxPoint x="390" y="450" as="sourcePoint" />
            <mxPoint x="440" y="400" as="targetPoint" />
            <Array as="points">
              <mxPoint x="400" y="460" />
              <mxPoint x="400" y="360" />
            </Array>
          </mxGeometry>
        </mxCell>
        <mxCell id="JMkpRrbRe8zlzlUR4qUp-45" value="YES" style="text;html=1;align=center;verticalAlign=middle;resizable=0;points=[];autosize=1;strokeColor=none;fillColor=none;" vertex="1" parent="1">
          <mxGeometry x="390" y="400" width="50" height="30" as="geometry" />
        </mxCell>
        <mxCell id="JMkpRrbRe8zlzlUR4qUp-47" value="" style="endArrow=classic;html=1;rounded=0;entryX=0.5;entryY=0;entryDx=0;entryDy=0;exitX=0.5;exitY=1;exitDx=0;exitDy=0;" edge="1" parent="1" source="JMkpRrbRe8zlzlUR4qUp-31" target="JMkpRrbRe8zlzlUR4qUp-33">
          <mxGeometry width="50" height="50" relative="1" as="geometry">
            <mxPoint x="400" y="450" as="sourcePoint" />
            <mxPoint x="450" y="400" as="targetPoint" />
          </mxGeometry>
        </mxCell>
        <mxCell id="JMkpRrbRe8zlzlUR4qUp-48" value="" style="endArrow=classic;html=1;rounded=0;entryX=0.5;entryY=0;entryDx=0;entryDy=0;entryPerimeter=0;exitX=0.5;exitY=1;exitDx=0;exitDy=0;" edge="1" parent="1" source="JMkpRrbRe8zlzlUR4qUp-33" target="JMkpRrbRe8zlzlUR4qUp-35">
          <mxGeometry width="50" height="50" relative="1" as="geometry">
            <mxPoint x="400" y="450" as="sourcePoint" />
            <mxPoint x="450" y="400" as="targetPoint" />
          </mxGeometry>
        </mxCell>
        <mxCell id="JMkpRrbRe8zlzlUR4qUp-49" value="" style="endArrow=classic;html=1;rounded=0;entryX=0;entryY=0.5;entryDx=0;entryDy=0;entryPerimeter=0;exitX=1;exitY=0.5;exitDx=0;exitDy=0;" edge="1" parent="1" source="JMkpRrbRe8zlzlUR4qUp-33" target="JMkpRrbRe8zlzlUR4qUp-34">
          <mxGeometry width="50" height="50" relative="1" as="geometry">
            <mxPoint x="400" y="450" as="sourcePoint" />
            <mxPoint x="450" y="400" as="targetPoint" />
          </mxGeometry>
        </mxCell>
        <mxCell id="JMkpRrbRe8zlzlUR4qUp-51" value="" style="endArrow=classic;html=1;rounded=0;entryX=0;entryY=0.5;entryDx=0;entryDy=0;exitX=0.5;exitY=1;exitDx=0;exitDy=0;exitPerimeter=0;" edge="1" parent="1" source="JMkpRrbRe8zlzlUR4qUp-35" target="JMkpRrbRe8zlzlUR4qUp-36">
          <mxGeometry width="50" height="50" relative="1" as="geometry">
            <mxPoint x="400" y="450" as="sourcePoint" />
            <mxPoint x="450" y="400" as="targetPoint" />
            <Array as="points">
              <mxPoint x="528" y="830" />
            </Array>
          </mxGeometry>
        </mxCell>
        <mxCell id="JMkpRrbRe8zlzlUR4qUp-52" value="" style="endArrow=classic;html=1;rounded=0;entryX=0.5;entryY=0;entryDx=0;entryDy=0;entryPerimeter=0;exitX=0.5;exitY=1;exitDx=0;exitDy=0;" edge="1" parent="1" source="JMkpRrbRe8zlzlUR4qUp-36" target="JMkpRrbRe8zlzlUR4qUp-37">
          <mxGeometry width="50" height="50" relative="1" as="geometry">
            <mxPoint x="400" y="450" as="sourcePoint" />
            <mxPoint x="450" y="400" as="targetPoint" />
          </mxGeometry>
        </mxCell>
        <mxCell id="JMkpRrbRe8zlzlUR4qUp-54" value="" style="endArrow=classic;startArrow=classic;html=1;rounded=0;entryX=1;entryY=0.5;entryDx=0;entryDy=0;" edge="1" parent="1" target="JMkpRrbRe8zlzlUR4qUp-31">
          <mxGeometry width="50" height="50" relative="1" as="geometry">
            <mxPoint x="780" y="830" as="sourcePoint" />
            <mxPoint x="450" y="400" as="targetPoint" />
            <Array as="points">
              <mxPoint x="800" y="830" />
              <mxPoint x="800" y="690" />
              <mxPoint x="800" y="330" />
            </Array>
          </mxGeometry>
        </mxCell>
        <mxCell id="JMkpRrbRe8zlzlUR4qUp-56" style="edgeStyle=orthogonalEdgeStyle;rounded=0;orthogonalLoop=1;jettySize=auto;html=1;exitX=0.5;exitY=1;exitDx=0;exitDy=0;exitPerimeter=0;entryX=1;entryY=0.5;entryDx=0;entryDy=0;entryPerimeter=0;" edge="1" parent="1" source="JMkpRrbRe8zlzlUR4qUp-34" target="JMkpRrbRe8zlzlUR4qUp-35">
          <mxGeometry relative="1" as="geometry" />
        </mxCell>
        <mxCell id="JMkpRrbRe8zlzlUR4qUp-57" style="edgeStyle=orthogonalEdgeStyle;rounded=0;orthogonalLoop=1;jettySize=auto;html=1;exitX=1;exitY=0.5;exitDx=0;exitDy=0;exitPerimeter=0;entryX=0.853;entryY=-0.056;entryDx=0;entryDy=0;entryPerimeter=0;" edge="1" parent="1" source="JMkpRrbRe8zlzlUR4qUp-34" target="JMkpRrbRe8zlzlUR4qUp-36">
          <mxGeometry relative="1" as="geometry" />
        </mxCell>
        <mxCell id="JMkpRrbRe8zlzlUR4qUp-58" value="OPPORTUNITIES" style="text;html=1;align=center;verticalAlign=middle;resizable=0;points=[];autosize=1;strokeColor=none;fillColor=none;rotation=-90;" vertex="1" parent="1">
          <mxGeometry x="630" y="620" width="120" height="30" as="geometry" />
        </mxCell>
      </root>
    </mxGraphModel>
  </diagram>
</mxfile>
